<?xml version="1.0" encoding="utf-8"?>
<?xml-stylesheet type="text/xsl" href="rss1.xsl"?>
<rss version="2.0" xmlns:atom="http://www.w3.org/2005/Atom" xmlns:content="http://purl.org/rss/1.0/modules/content/" xmlns:dc="http://purl.org/dc/elements/1.1/" xmlns:media="http://search.yahoo.com/mrss/">
<channel>
 <title>Getty</title>
 <link>http://www.gettyimg.com/</link>
 <atom:link href="http://www.gettyimg.com/" rel="self" type="application/rss+xml" />

 
                <item>
                <title><![CDATA[【Requests】[REQ AUD] - Billie Eilish - Chihiro (With Silent Intro)]]></title>
                <link><![CDATA[https://sharemania.us/threads/billie-eilish-chihiro-with-silent-intro.249663/]]></link>
                <description><![CDATA[<article>
<blockquote class="messageText SelectQuoteContainer ugc baseHtml">
Hello,<br>
i found the Song "Chihiro" by Billie Eilish on TikTok in a slightly different version then on spotify, youtube, etc.<br>
<br>
Any ideas how this version/remix/mashup is called?<br>
Audio Reference:<br>
<span data-s9e-mediaembed="googledrive" style="display:inline-block;width:100%;max-width:640px"><span style="display:block;overflow:hidden;position:relative;padding-bottom:75%"><iframe allowfullscreen="" loading="lazy" scrolling="no" src="//drive.google.com/file/d/18XyBPlu7cqxZPCGEUWziVV2Vd5ketONO/preview" style="border:0;height:100%;left:0;position:absolute;width:100%"></iframe></span></span><br>
<br>
Hope for some helpful answers.<br>
<br>
With kind regards,<br>
Alex
<div class="messageTextEndMarker">&nbsp;</div>
</blockquote>
</article>]]></description>
                <author><![CDATA[xCraimax]]></author>
                </item>

                
                <item>
                <title><![CDATA[【Cinema Center】SERIES - A Pup Named Scooby Doo S02 480p BMG WEB-DL DUAL]]></title>
                <link><![CDATA[https://sharemania.us/threads/a-pup-named-scooby-doo-s02-480p-bmg-web-dl-dual.249664/]]></link>
                <description><![CDATA[<article>
<blockquote class="messageText SelectQuoteContainer ugc baseHtml">
<img src="https://images.justwatch.com/poster/307013110/s718/season-2.jpg" class="bbCodeImage LbImage" alt="[​IMG]" data-url="https://images.justwatch.com/poster/307013110/s718/season-2.jpg" style=""> <br>
Sinopsis: Spin-Off de la serie original Scooby Doo que nos muestra las divertidas aventuras del joven cachorro Scooby y sus amigos Shaggy, Daphne, Velma y Fred cuando eran pequeños.<br>
<br>
<div class="ToggleTriggerAnchor bbCodeSpoilerContainer">
<button type="button" class="button bbCodeSpoilerButton ToggleTrigger Tooltip JsOnly" data-target="> .SpoilerTarget"><span>Spoiler: <span class="SpoilerTitle">Media Info</span></span></button>
<div class="SpoilerTarget bbCodeSpoilerText">Video<br>
ID : 1<br>
Format : AVC<br>
Format/Info : Advanced Video Codec<br>
Format profile : Constrained Baseline@L3<br>
Format settings : 4 Ref Frames<br>
Format settings, CABAC : No<br>
Format settings, Reference fra : 4 frames<br>
Format settings, GOP : M=1, N=60<br>
Codec ID : V_MPEG4/ISO/AVC<br>
Duration : 23 min 6 s<br>
Bit rate : 4 996 kb/s<br>
Width : 622 pixels<br>
Height : 466 pixels<br>
Display aspect ratio : 4:3<br>
Frame rate mode : Constant<br>
Frame rate : 29.970 (30000/1001) FPS<br>
Color space : YUV<br>
Chroma subsampling : 4:2:0<br>
Bit depth : 8 bits<br>
Scan type : Progressive<br>
Bits/(Pixel*Frame) : 0.575<br>
Stream size : 825 MiB (95%)<br>
Writing library : Zencoder Video Encoding System<br>
Default : Yes<br>
Forced : No<br>
Audio #1<br>
ID : 2<br>
Format : AAC LC<br>
Format/Info : Advanced Audio Codec Low Complexity<br>
Codec ID : A_AAC-2<br>
Duration : 23 min 5 s<br>
Bit rate : 128 kb/s<br>
Channel(s) : 2 channels<br>
Channel layout : L R<br>
Sampling rate : 48.0 kHz<br>
Frame rate : 46.875 FPS (1024 SPF)<br>
Compression mode : Lossy<br>
Stream size : 21.1 MiB (2%)<br>
Title : English<br>
Language : English<br>
Default : No<br>
Forced : No<br>
Audio #2<br>
ID : 3<br>
Format : AAC LC<br>
Format/Info : Advanced Audio Codec Low Complexity<br>
Codec ID : A_AAC-2<br>
Duration : 23 min 5 s<br>
Bit rate : 128 kb/s<br>
Channel(s) : 2 channels<br>
Channel layout : L R<br>
Sampling rate : 48.0 kHz<br>
Frame rate : 46.875 FPS (1024 SPF)<br>
Compression mode : Lossy<br>
Stream size : 21.1 MiB (2%)<br>
Title : Spanish<br>
Language : Spanish<br>
Default : Yes<br>
Forced : No<br>
Text<br>
ID : 4<br>
Format : UTF-8<br>
Codec ID : S_TEXT/UTF8<br>
Codec ID/Info : UTF-8 Plain Text<br>
Duration : 22 min 59 s<br>
Bit rate : 81 b/s<br>
Frame rate : 0.386 FPS<br>
Count of elements : 532<br>
Stream size : 13.7 KiB (0%)<br>
Language : English<br>
Default : No<br>
Forced : No</div>
</div><br>
Captura<br>
<br>
<img src="https://i.ibb.co/yQPjH8Q/A-Pup-Named-Scooby-Doo-S02-E01-La-Maldicion-del-Collar-466p-mkv-thumbs.png" class="bbCodeImage LbImage" alt="[​IMG]" data-url="https://i.ibb.co/yQPjH8Q/A-Pup-Named-Scooby-Doo-S02-E01-La-Maldicion-del-Collar-466p-mkv-thumbs.png" style=""> <br>
<br>
<div class="bbCodeBlock bbCodeVfcHH HiddenContent">
<div class="attribution type">Hidden Content:</div>
<blockquote>You must reply before you can see the hidden data contained here.</blockquote>
</div>
<div class="messageTextEndMarker">&nbsp;</div>
</blockquote>
</article>]]></description>
                <author><![CDATA[santibg0604]]></author>
                </item>

                
                <item>
                <title><![CDATA[【Albums (lossless)】FLAC - Aespa - My World mini album+ Photobook Scans + Concept Photobook &amp; More]]></title>
                <link><![CDATA[https://sharemania.us/threads/aespa-my-world-mini-album-photobook-scans-concept-photobook-more.249665/]]></link>
                <description><![CDATA[<article>
<blockquote class="messageText SelectQuoteContainer ugc baseHtml">
<b>Aespa - My World - 3rd mini album 24bits/192kHz + Photobook Scans + Concept Photobook + Digital Booklet </b><br>
<br>
<img src="https://images-wixmp-ed30a86b8c4ca887773594c2.wixmp.com/f/5c2303a6-d588-4cff-8086-0cc1e7d34e33/dfyq7o7-216b345c-daf8-4e43-9783-f13c1dadadf5.png/v1/fill/w_1280,h_1280,q_80,strp/aespa___my_world__album_cover__3_by_phs129_dfyq7o7-fullview.jpg?token=eyJ0eXAiOiJKV1QiLCJhbGciOiJIUzI1NiJ9.eyJzdWIiOiJ1cm46YXBwOjdlMGQxODg5ODIyNjQzNzNhNWYwZDQxNWVhMGQyNmUwIiwiaXNzIjoidXJuOmFwcDo3ZTBkMTg4OTgyMjY0MzczYTVmMGQ0MTVlYTBkMjZlMCIsIm9iaiI6W1t7ImhlaWdodCI6Ijw9MTI4MCIsInBhdGgiOiJcL2ZcLzVjMjMwM2E2LWQ1ODgtNGNmZi04MDg2LTBjYzFlN2QzNGUzM1wvZGZ5cTdvNy0yMTZiMzQ1Yy1kYWY4LTRlNDMtOTc4My1mMTNjMWRhZGFkZjUucG5nIiwid2lkdGgiOiI8PTEyODAifV1dLCJhdWQiOlsidXJuOnNlcnZpY2U6aW1hZ2Uub3BlcmF0aW9ucyJdfQ.NS00yiCNY3IqpBBRfAucW5YtLikV-urssUOWswpyVdY" class="bbCodeImage LbImage" alt="[​IMG]" data-url="https://images-wixmp-ed30a86b8c4ca887773594c2.wixmp.com/f/5c2303a6-d588-4cff-8086-0cc1e7d34e33/dfyq7o7-216b345c-daf8-4e43-9783-f13c1dadadf5.png/v1/fill/w_1280,h_1280,q_80,strp/aespa___my_world__album_cover__3_by_phs129_dfyq7o7-fullview.jpg?token=eyJ0eXAiOiJKV1QiLCJhbGciOiJIUzI1NiJ9.eyJzdWIiOiJ1cm46YXBwOjdlMGQxODg5ODIyNjQzNzNhNWYwZDQxNWVhMGQyNmUwIiwiaXNzIjoidXJuOmFwcDo3ZTBkMTg4OTgyMjY0MzczYTVmMGQ0MTVlYTBkMjZlMCIsIm9iaiI6W1t7ImhlaWdodCI6Ijw9MTI4MCIsInBhdGgiOiJcL2ZcLzVjMjMwM2E2LWQ1ODgtNGNmZi04MDg2LTBjYzFlN2QzNGUzM1wvZGZ5cTdvNy0yMTZiMzQ1Yy1kYWY4LTRlNDMtOTc4My1mMTNjMWRhZGFkZjUucG5nIiwid2lkdGgiOiI8PTEyODAifV1dLCJhdWQiOlsidXJuOnNlcnZpY2U6aW1hZ2Uub3BlcmF0aW9ucyJdfQ.NS00yiCNY3IqpBBRfAucW5YtLikV-urssUOWswpyVdY" style=""> <br>
<br>
<b>Setlist </b><br>
<br>
<ol>
<li><b>Welcome to my World</b></li>
<li><b>Spicy</b></li>
<li><b>Salty &amp; Sweet</b></li>
<li><b>Thirsty</b></li>
<li><b>I'm unhappy</b></li>
</ol><b><br>
<br>
(Album Includes Digital Booklet + HQ Photobook Scans + Press Showcase Photobook + My World Behind + Concept Photobook + Strange Phenomenom Scans + Spicy Concept Photos)<br>
<br>
<img src="https://pbs.twimg.com/media/FviLaFpaYAMMri9?format=jpg&amp;name=4096x4096" class="bbCodeImage LbImage" alt="[​IMG]" data-url="https://pbs.twimg.com/media/FviLaFpaYAMMri9?format=jpg&amp;name=4096x4096" style=""> <br>
<br>
<div class="bbCodeBlock bbCodeVfcHH HiddenContent">
<div class="attribution type">Hidden Content:</div>
<blockquote>You must reply before you can see the hidden data contained here.</blockquote>
</div><br>
<div class="bbCodeBlock bbCodeVfcHH HiddenContent">
<div class="attribution type">Hidden Content:</div>
<blockquote>You must reply before you can see the hidden data contained here.</blockquote>
</div></b><br>
Hope You Like
<div class="messageTextEndMarker">&nbsp;</div>
</blockquote>
</article>]]></description>
                <author><![CDATA[loko25]]></author>
                </item>

                </channel></rss>